<svg width="34" height="34" viewBox="0 0 34 34" fill="none" xmlns="http://www.w3.org/2000/svg">
<path d="M24.8336 20.6924C24.8336 22.1204 25.2399 22.6899 26.3024 22.6899C28.6705 22.6899 30.1784 19.6724 30.1784 14.654C30.1784 6.98363 24.5888 3.31163 17.6103 3.31163C10.4312 3.31163 3.90154 8.12603 3.90154 17.2244C3.90154 25.9148 9.61353 30.6476 18.3855 30.6476C21.3639 30.6476 23.3631 30.3212 26.4214 29.3012L27.0776 32.0331C24.0584 33.014 20.8318 33.2979 18.3447 33.2979C6.83914 33.2979 0.676636 26.9739 0.676636 17.2227C0.676636 7.38993 7.81834 0.69873 17.6511 0.69873C27.8919 0.69873 33.3166 6.81873 33.3166 14.3259C33.3166 20.6907 31.3191 25.5459 25.0359 25.5459C22.1782 25.5459 20.3031 24.4035 20.0583 21.8722C19.3239 24.6874 17.3655 25.5459 14.7118 25.5459C11.1622 25.5459 8.18384 22.8106 8.18384 17.3043C8.18384 11.7555 10.7967 8.32833 15.4887 8.32833C17.9775 8.32833 19.5279 9.30753 20.2181 10.8579L21.403 8.69553H24.8302V20.6924H24.8336ZM19.8169 15.3068C19.8169 13.0645 18.1424 12.1244 16.7552 12.1244C15.2456 12.1244 13.5745 13.3467 13.5745 16.9388C13.5745 19.7948 14.8393 21.386 16.7552 21.386C18.1016 21.386 19.8169 20.5292 19.8169 18.1628V15.3068Z" fill="#facc13"/>
</svg>
