<svg width="80" height="237" viewBox="0 0 80 237" fill="none" xmlns="http://www.w3.org/2000/svg">
<path d="M54.2735 2.87693C54.7578 2.20482 54.6056 1.26735 53.9335 0.783038C53.2614 0.298724 52.3239 0.450962 51.8396 1.12307L54.2735 2.87693ZM5.55651 97.5L4.14587 96.99L5.55651 97.5ZM79.5565 236.5L73.051 220.448L62.402 234.108L79.5565 236.5ZM49.0364 5.07401C48.5621 5.75324 48.7283 6.68834 49.4075 7.16262C50.0867 7.63689 51.0218 7.47074 51.4961 6.79151L49.0364 5.07401ZM46.2703 14.5338C46.7222 13.8395 46.5258 12.9103 45.8315 12.4584C45.1372 12.0064 44.208 12.2029 43.756 12.8972L46.2703 14.5338ZM38.7491 20.9126C38.3242 21.6237 38.5562 22.5447 39.2674 22.9696C39.9786 23.3945 40.8995 23.1624 41.3244 22.4513L38.7491 20.9126ZM36.714 30.5775C37.1054 29.8474 36.8307 28.9382 36.1005 28.5469C35.3704 28.1555 34.4612 28.4302 34.0699 29.1603L36.714 30.5775ZM29.8085 37.671C29.46 38.4225 29.7867 39.3143 30.5382 39.6629C31.2898 40.0114 32.1816 39.6847 32.5301 38.9332L29.8085 37.671ZM28.913 47.5125C29.2052 46.7373 28.8137 45.8721 28.0385 45.5799C27.2633 45.2877 26.398 45.6792 26.1058 46.4544L28.913 47.5125ZM23.171 55.4826C22.9554 56.2825 23.4291 57.1057 24.2289 57.3213C25.0288 57.5369 25.852 57.0633 26.0676 56.2634L23.171 55.4826ZM24.2391 65.3308C24.3435 64.509 23.762 63.7581 22.9401 63.6537C22.1183 63.5493 21.3675 64.1309 21.2631 64.9527L24.2391 65.3308ZM20.9411 74.635C21.0013 75.4613 21.7198 76.0823 22.546 76.0222C23.3723 75.9621 23.9933 75.2436 23.9332 74.4173L20.9411 74.635ZM25.7939 83.1387C25.4967 82.3654 24.6289 81.9795 23.8556 82.2768C23.0823 82.574 22.6964 83.4418 22.9936 84.2151L25.7939 83.1387ZM28.2567 92.6469C28.8275 93.2474 29.7769 93.2714 30.3773 92.7007C30.9778 92.1299 31.0018 91.1805 30.4311 90.58L28.2567 92.6469ZM37.6251 95.5517C36.8643 95.2239 35.9818 95.5749 35.654 96.3357C35.3262 97.0965 35.6772 97.979 36.438 98.3068L37.6251 95.5517ZM46.0546 100.575C46.8811 100.631 47.5963 100.006 47.652 99.1793C47.7077 98.3528 47.0828 97.6376 46.2562 97.5819L46.0546 100.575ZM55.1789 96.8578C54.3714 97.0428 53.8667 97.8474 54.0517 98.6549C54.2367 99.4624 55.0412 99.967 55.8488 99.7821L55.1789 96.8578ZM65.0113 96.2153C65.7291 95.8018 65.9758 94.8846 65.5623 94.1668C65.1488 93.4489 64.2317 93.2022 63.5139 93.6157L65.0113 96.2153ZM70.3028 87.9641C69.7756 88.6032 69.8663 89.5486 70.5054 90.0758C71.1444 90.6029 72.0898 90.5122 72.617 89.8732L70.3028 87.9641ZM77.209 81.0823C77.4283 80.2834 76.9585 79.458 76.1596 79.2387C75.3607 79.0194 74.5353 79.4893 74.316 80.2881L77.209 81.0823ZM74.4293 71.9355C74.6405 72.7366 75.4611 73.2147 76.2622 73.0035C77.0632 72.7923 77.5414 71.9717 77.3301 71.1706L74.4293 71.9355ZM72.409 62.5722C71.8356 61.9743 70.886 61.9544 70.2881 62.5278C69.6902 63.1011 69.6703 64.0507 70.2436 64.6486L72.409 62.5722ZM63.1516 59.7672C63.9088 60.1032 64.795 59.7617 65.131 59.0044C65.467 58.2472 65.1255 57.361 64.3683 57.025L63.1516 59.7672ZM54.9988 54.565C54.1749 54.4789 53.4371 55.077 53.3509 55.9009C53.2648 56.7249 53.8629 57.4626 54.6868 57.5488L54.9988 54.565ZM45.8797 57.86C46.6963 57.7203 47.245 56.9451 47.1053 56.1286C46.9656 55.312 46.1905 54.7633 45.3739 54.9029L45.8797 57.86ZM36.1963 57.6802C35.4378 58.0132 35.0928 58.8981 35.4257 59.6566C35.7587 60.4152 36.6436 60.7602 37.4021 60.4272L36.1963 57.6802ZM29.6746 64.8855C30.3453 64.3992 30.4948 63.4613 30.0085 62.7906C29.5222 62.1199 28.5843 61.9704 27.9136 62.4567L29.6746 64.8855ZM20.7575 68.7382C20.1851 69.3372 20.2067 70.2867 20.8057 70.859C21.4047 71.4313 22.3542 71.4097 22.9265 70.8107L20.7575 68.7382ZM17.2183 77.7901C17.6952 77.1127 17.5327 76.177 16.8553 75.7001C16.1779 75.2231 15.2422 75.3857 14.7653 76.063L17.2183 77.7901ZM9.8488 84.0737C9.45787 84.8041 9.73305 85.7131 10.4634 86.104C11.1938 86.495 12.1028 86.2198 12.4938 85.4894L9.8488 84.0737ZM8.62368 93.7205C8.93929 92.9546 8.57422 92.0778 7.80827 91.7622C7.04232 91.4465 6.16554 91.8116 5.84993 92.5776L8.62368 93.7205ZM2.55303 102.093C2.34152 102.894 2.81939 103.715 3.62036 103.927C4.42133 104.138 5.24211 103.66 5.45361 102.859L2.55303 102.093ZM3.7273 112.867C3.79792 112.042 3.18604 111.315 2.36062 111.245C1.53521 111.174 0.808837 111.786 0.738221 112.611L3.7273 112.867ZM0.680142 123.26C0.738959 124.087 1.45652 124.709 2.28285 124.65C3.10919 124.591 3.73139 123.874 3.67257 123.047L0.680142 123.26ZM5.09871 133.164C4.92999 132.353 4.13571 131.832 3.32465 132.001C2.51358 132.17 1.99287 132.964 2.16159 133.775L5.09871 133.164ZM4.91162 144.001C5.16977 144.788 6.01717 145.217 6.80435 144.958C7.59153 144.7 8.02039 143.853 7.76224 143.066L4.91162 144.001ZM11.4305 152.675C11.1006 151.915 10.2172 151.566 9.45727 151.896C8.69735 152.226 8.3487 153.11 8.67855 153.87L11.4305 152.675ZM13.2564 163.365C13.6439 164.097 14.5516 164.376 15.2838 163.989C16.0161 163.601 16.2955 162.694 15.908 161.961L13.2564 163.365ZM21.04 170.92C20.6057 170.215 19.6817 169.995 18.9763 170.429C18.2709 170.864 18.0512 171.788 18.4855 172.493L21.04 170.92ZM24.2507 181.28C24.7239 181.96 25.6587 182.128 26.3387 181.655C27.0187 181.182 27.1863 180.247 26.713 179.567L24.2507 181.28ZM32.8386 187.915C32.3326 187.259 31.3907 187.137 30.7348 187.643C30.0788 188.149 29.9573 189.091 30.4633 189.747L32.8386 187.915ZM37.0566 197.911C37.5909 198.544 38.5373 198.624 39.1704 198.09C39.8035 197.556 39.8836 196.609 39.3493 195.976L37.0566 197.911ZM46.1946 203.761C45.6353 203.15 44.6865 203.108 44.0754 203.667C43.4642 204.226 43.4221 205.175 43.9814 205.786L46.1946 203.761ZM51.2037 213.384C51.7857 213.973 52.7354 213.979 53.325 213.397C53.9146 212.815 53.9208 211.866 53.3388 211.276L51.2037 213.384ZM60.7606 218.523C60.1573 217.955 59.208 217.984 58.6403 218.587C58.0725 219.191 58.1014 220.14 58.7047 220.708L60.7606 218.523ZM66.4792 227.753C67.1037 228.297 68.0512 228.232 68.5956 227.608C69.14 226.983 69.0751 226.036 68.4506 225.491L66.4792 227.753ZM76.4017 232.139C75.7546 231.621 74.8107 231.727 74.2934 232.374C73.7761 233.021 73.8813 233.965 74.5283 234.482L76.4017 232.139ZM51.8396 1.12307C50.8795 2.45541 49.9453 3.77235 49.0364 5.07401L51.4961 6.79151C52.3963 5.50229 53.3219 4.19747 54.2735 2.87693L51.8396 1.12307ZM43.756 12.8972C41.9692 15.6421 40.3019 18.3135 38.7491 20.9126L41.3244 22.4513C42.8566 19.8868 44.5035 17.2481 46.2703 14.5338L43.756 12.8972ZM34.0699 29.1603C32.4951 32.0985 31.0775 34.9347 29.8085 37.671L32.5301 38.9332C33.7733 36.2525 35.1648 33.468 36.714 30.5775L34.0699 29.1603ZM26.1058 46.4544C24.9148 49.6142 23.942 52.6223 23.171 55.4826L26.0676 56.2634C26.8113 53.5046 27.7533 50.5892 28.913 47.5125L26.1058 46.4544ZM21.2631 64.9527C20.8191 68.4473 20.7255 71.6718 20.9411 74.635L23.9332 74.4173C23.7336 71.6735 23.8176 68.6496 24.2391 65.3308L21.2631 64.9527ZM22.9936 84.2151C24.2748 87.5483 26.0753 90.3521 28.2567 92.6469L30.4311 90.58C28.5277 88.5777 26.937 86.1126 25.7939 83.1387L22.9936 84.2151ZM36.438 98.3068C39.4734 99.6147 42.7418 100.352 46.0546 100.575L46.2562 97.5819C43.2505 97.3794 40.3192 96.7125 37.6251 95.5517L36.438 98.3068ZM55.8488 99.7821C59.0739 99.0433 62.188 97.8415 65.0113 96.2153L63.5139 93.6157C60.9606 95.0864 58.1272 96.1824 55.1789 96.8578L55.8488 99.7821ZM72.617 89.8732C73.6807 88.5837 74.6141 87.1871 75.3889 85.6891L72.7242 84.3109C72.0518 85.6109 71.2378 86.8306 70.3028 87.9641L72.617 89.8732ZM75.3889 85.6891C76.1872 84.1458 76.7906 82.6064 77.209 81.0823L74.316 80.2881C73.9562 81.5988 73.4318 82.943 72.7242 84.3109L75.3889 85.6891ZM77.3301 71.1706C76.4778 67.9384 74.7601 65.0241 72.409 62.5722L70.2436 64.6486C72.2771 66.7692 73.7192 69.2424 74.4293 71.9355L77.3301 71.1706ZM64.3683 57.025C61.5257 55.7637 58.3621 54.9167 54.9988 54.565L54.6868 57.5488C57.7496 57.869 60.6068 58.638 63.1516 59.7672L64.3683 57.025ZM45.3739 54.9029C42.3557 55.4192 39.2739 56.3293 36.1963 57.6802L37.4021 60.4272C40.2582 59.1735 43.1051 58.3346 45.8797 57.86L45.3739 54.9029ZM27.9136 62.4567C25.4716 64.2272 23.0746 66.3131 20.7575 68.7382L22.9265 70.8107C25.1231 68.5118 27.3842 66.5461 29.6746 64.8855L27.9136 62.4567ZM14.7653 76.063C13.0498 78.4996 11.4053 81.1657 9.8488 84.0737L12.4938 85.4894C13.9954 82.6839 15.5763 80.1223 17.2183 77.7901L14.7653 76.063ZM5.84993 92.5776C5.26282 94.0024 4.69436 95.4729 4.14587 96.99L6.96715 98.01C7.50105 96.5333 8.05369 95.1038 8.62368 93.7205L5.84993 92.5776ZM4.14587 96.99C3.53453 98.6809 3.00474 100.383 2.55303 102.093L5.45361 102.859C5.88284 101.234 6.38623 99.6168 6.96715 98.01L4.14587 96.99ZM0.738221 112.611C0.435816 116.146 0.42676 119.701 0.680142 123.26L3.67257 123.047C3.4296 119.634 3.43905 116.237 3.7273 112.867L0.738221 112.611ZM2.16159 133.775C2.87285 137.194 3.79856 140.606 4.91162 144.001L7.76224 143.066C6.68114 139.769 5.78538 136.465 5.09871 133.164L2.16159 133.775ZM8.67855 153.87C10.0648 157.063 11.5984 160.232 13.2564 163.365L15.908 161.961C14.2832 158.891 12.7836 155.792 11.4305 152.675L8.67855 153.87ZM18.4855 172.493C20.3167 175.467 22.2453 178.399 24.2507 181.28L26.713 179.567C24.7375 176.728 22.8398 173.843 21.04 170.92L18.4855 172.493ZM30.4633 189.747C32.6107 192.531 34.8155 195.255 37.0566 197.911L39.3493 195.976C37.1349 193.352 34.9578 190.662 32.8386 187.915L30.4633 189.747ZM43.9814 205.786C46.3794 208.407 48.7947 210.943 51.2037 213.384L53.3388 211.276C50.9553 208.861 48.5661 206.353 46.1946 203.761L43.9814 205.786ZM58.7047 220.708C61.3447 223.192 63.9471 225.545 66.4792 227.753L68.4506 225.491C65.9469 223.309 63.3728 220.981 60.7606 218.523L58.7047 220.708Z" fill="#facc13"/>
</svg>
