<svg width="34" height="34" viewBox="0 0 34 34" fill="none" xmlns="http://www.w3.org/2000/svg">
<path d="M30.9851 1.28296H3.01749C2.05954 1.28296 1.28296 2.05954 1.28296 3.01749V30.9851C1.28296 31.9431 2.05954 32.7197 3.01749 32.7197H30.9851C31.9431 32.7197 32.7197 31.9431 32.7197 30.9851V3.01749C32.7197 2.05954 31.9431 1.28296 30.9851 1.28296Z" fill="#3D5A98"/>
<path d="M22.9712 32.7171V20.5435H27.0565L27.6675 15.7995H22.9712V12.7713C22.9712 11.3981 23.3537 10.4604 25.322 10.4604H27.8348V6.21039C26.618 6.08358 25.3952 6.02328 24.1719 6.02977C20.554 6.02977 18.0625 8.23446 18.0625 12.3012V15.7995H13.9772V20.5435H18.0625V32.7171H22.9712Z" fill="white"/>
</svg>
