<svg width="195" height="100" viewBox="0 0 195 100" fill="none" xmlns="http://www.w3.org/2000/svg">
<path d="M-31.6082 66.7238C-32.3562 66.3677 -33.2513 66.6854 -33.6073 67.4334C-33.9634 68.1814 -33.6457 69.0764 -32.8977 69.4325L-31.6082 66.7238ZM70.2111 97.7026L69.9621 99.1818L70.2111 97.7026ZM193.707 6.07008e-05L179.08 9.27588L194.426 17.3056L193.707 6.07008e-05ZM-28.5086 71.4826C-27.7554 71.8276 -26.8651 71.4966 -26.5202 70.7434C-26.1753 69.9902 -26.5062 69.1 -27.2594 68.755L-28.5086 71.4826ZM-18.7063 72.5094C-19.4703 72.1891 -20.3493 72.5489 -20.6695 73.3129C-20.9898 74.0769 -20.63 74.9559 -19.866 75.2762L-18.7063 72.5094ZM-11.0834 78.7663C-10.3076 79.0569 -9.44311 78.6637 -9.15248 77.8879C-8.86184 77.1121 -9.25513 76.2476 -10.0309 75.957L-11.0834 78.7663ZM-1.21021 79.0371C-1.99867 78.7829 -2.84392 79.216 -3.09814 80.0045C-3.35236 80.7929 -2.91928 81.6382 -2.13082 81.8924L-1.21021 79.0371ZM7.00552 84.5602C7.80733 84.7685 8.62618 84.2874 8.83445 83.4855C9.04272 82.6837 8.56155 81.8649 7.75973 81.6566L7.00552 84.5602ZM16.8483 83.6783C16.0333 83.5297 15.2521 84.0699 15.1035 84.8849C14.9549 85.6999 15.4951 86.481 16.3101 86.6296L16.8483 83.6783ZM25.718 87.8997C26.5436 87.9686 27.2686 87.3551 27.3375 86.5296C27.4063 85.704 26.7928 84.979 25.9673 84.9101L25.718 87.8997ZM35.2156 85.0848C34.3884 85.1293 33.7538 85.8359 33.7983 86.6632C33.8428 87.4904 34.5495 88.1249 35.3768 88.0804L35.2156 85.0848ZM44.9601 86.6627C45.7622 86.4556 46.2445 85.6374 46.0374 84.8353C45.8302 84.0332 45.012 83.5509 44.2099 83.758L44.9601 86.6627ZM52.4569 80.3652C51.7494 80.7961 51.5252 81.719 51.9561 82.4265C52.3871 83.1341 53.31 83.3583 54.0175 82.9273L52.4569 80.3652ZM61.3702 76.239C61.8587 75.5699 61.7123 74.6315 61.0432 74.143C60.3741 73.6545 59.4357 73.8009 58.9472 74.47L61.3702 76.239ZM62.5498 66.5018C62.3635 67.309 62.867 68.1143 63.6742 68.3006C64.4814 68.4868 65.2868 67.9834 65.473 67.1761L62.5498 66.5018ZM65.9819 57.3088C65.8887 56.4856 65.1457 55.8939 64.3226 55.9872C63.4994 56.0805 62.9077 56.8234 63.001 57.6466L65.9819 57.3088ZM60.6903 48.998C61.0169 49.7593 61.8989 50.1116 62.6602 49.785C63.4215 49.4583 63.7739 48.5764 63.4472 47.8151L60.6903 48.998ZM58.2968 39.4397C57.7614 38.8075 56.8149 38.7291 56.1827 39.2645C55.5506 39.7999 55.4721 40.7464 56.0075 41.3786L58.2968 39.4397ZM49.2313 35.7119C49.9544 36.116 50.8683 35.8574 51.2725 35.1343C51.6766 34.4111 51.418 33.4973 50.6949 33.0931L49.2313 35.7119ZM41.2236 30.1501C40.3984 30.0775 39.6705 30.6876 39.5978 31.5128C39.5252 32.338 40.1353 33.0659 40.9605 33.1385L41.2236 30.1501ZM32.7228 34.5233C33.473 34.172 33.7964 33.279 33.4451 32.5288C33.0938 31.7785 32.2008 31.4551 31.4506 31.8064L32.7228 34.5233ZM23.8728 38.1883C23.3872 38.8595 23.5378 39.7972 24.209 40.2828C24.8802 40.7683 25.8179 40.6178 26.3035 39.9466L23.8728 38.1883ZM22.7714 47.7984C22.9663 46.9932 22.4716 46.1825 21.6664 45.9876C20.8613 45.7927 20.0505 46.2874 19.8556 47.0926L22.7714 47.7984ZM19.1139 56.7512C19.1767 57.5772 19.8973 58.1959 20.7234 58.1331C21.5494 58.0702 22.1681 57.3496 22.1052 56.5236L19.1139 56.7512ZM23.9891 65.1325C23.7054 64.3542 22.8444 63.9532 22.0661 64.2369C21.2877 64.5206 20.8868 65.3815 21.1704 66.1599L23.9891 65.1325ZM25.5468 74.6914C26.0103 75.3781 26.9426 75.559 27.6293 75.0955C28.3159 74.6321 28.4969 73.6997 28.0334 73.0131L25.5468 74.6914ZM33.8038 79.817C33.2053 79.2443 32.2558 79.2652 31.683 79.8638C31.1103 80.4623 31.1312 81.4118 31.7298 81.9846L33.8038 79.817ZM39.1915 87.8998C39.8833 88.3555 40.8136 88.1642 41.2694 87.4724C41.7251 86.7806 41.5338 85.8503 40.842 85.3946L39.1915 87.8998ZM48.731 89.7602C47.9791 89.4123 47.0877 89.7398 46.7398 90.4917C46.3919 91.2435 46.7194 92.135 47.4713 92.4829L48.731 89.7602ZM56.2331 95.8849C57.0217 96.1386 57.8667 95.7051 58.1205 94.9165C58.3743 94.1279 57.9407 93.2829 57.1521 93.0291L56.2331 95.8849ZM65.9433 95.3621C65.1332 95.1888 64.336 95.705 64.1627 96.5151C63.9894 97.3252 64.5056 98.1224 65.3157 98.2957L65.9433 95.3621ZM75.2681 99.8347C76.094 99.8993 76.8159 99.2822 76.8805 98.4563C76.9451 97.6303 76.3279 96.9085 75.502 96.8439L75.2681 99.8347ZM85.6574 96.7495C84.8327 96.8278 84.2277 97.5599 84.3061 98.3847C84.3845 99.2094 85.1166 99.8144 85.9413 99.736L85.6574 96.7495ZM96.4283 97.8856C97.2308 97.6797 97.7144 96.8623 97.5085 96.0598C97.3026 95.2574 96.4852 94.7738 95.6827 94.9797L96.4283 97.8856ZM105.38 91.7644C104.612 92.0757 104.242 92.9504 104.554 93.7181C104.865 94.4858 105.74 94.8559 106.507 94.5446L105.38 91.7644ZM116.075 90.0073C116.803 89.6123 117.073 88.7018 116.678 87.9736C116.283 87.2454 115.373 86.9753 114.645 87.3702L116.075 90.0073ZM123.441 82.04C122.753 82.5006 122.568 83.4322 123.029 84.1208C123.489 84.8093 124.421 84.9941 125.11 84.5334L123.441 82.04ZM133.631 78.3287C134.282 77.8163 134.394 76.8732 133.882 76.2223C133.37 75.5713 132.427 75.459 131.776 75.9714L133.631 78.3287ZM139.67 69.3176C139.054 69.8713 139.003 70.8197 139.557 71.4359C140.111 72.052 141.059 72.1027 141.675 71.549L139.67 69.3176ZM149.288 64.303C149.872 63.7156 149.869 62.7659 149.282 62.1817C148.694 61.5975 147.745 61.6 147.161 62.1874L149.288 64.303ZM154.276 54.6655C153.722 55.2808 153.771 56.2293 154.386 56.784C155.001 57.3387 155.95 57.2895 156.504 56.6742L154.276 54.6655ZM163.355 48.7251C163.882 48.086 163.792 47.1406 163.153 46.6134C162.514 46.0863 161.568 46.177 161.041 46.816L163.355 48.7251ZM167.474 38.687C166.973 39.3466 167.101 40.2876 167.761 40.7887C168.421 41.2898 169.362 41.1613 169.863 40.5016L167.474 38.687ZM176.043 32.0352C176.519 31.357 176.355 30.4215 175.677 29.9457C174.999 29.4699 174.063 29.6339 173.587 30.3121L176.043 32.0352ZM179.388 21.7123C178.937 22.4075 179.135 23.3363 179.831 23.7868C180.526 24.2372 181.455 24.0388 181.905 23.3435L179.388 21.7123ZM187.444 14.4327C187.867 13.7209 187.634 12.8003 186.922 12.3766C186.21 11.9528 185.289 12.1864 184.866 12.8983L187.444 14.4327ZM189.981 3.8851C189.588 4.61436 189.861 5.52415 190.59 5.91718C191.319 6.31022 192.229 6.03765 192.622 5.30839L189.981 3.8851ZM-32.8977 69.4325C-31.415 70.1384 -29.952 70.8216 -28.5086 71.4826L-27.2594 68.755C-28.6891 68.1003 -30.1386 67.4234 -31.6082 66.7238L-32.8977 69.4325ZM-19.866 75.2762C-16.8454 76.5423 -13.9186 77.7041 -11.0834 78.7663L-10.0309 75.957C-12.8283 74.909 -15.7194 73.7614 -18.7063 72.5094L-19.866 75.2762ZM-2.13082 81.8924C1.04189 82.9154 4.08611 83.8019 7.00552 84.5602L7.75973 81.6566C4.89972 80.9137 1.91103 80.0435 -1.21021 79.0371L-2.13082 81.8924ZM16.3101 86.6296C19.6322 87.2354 22.7658 87.6536 25.718 87.8997L25.9673 84.9101C23.1199 84.6727 20.0829 84.2681 16.8483 83.6783L16.3101 86.6296ZM35.3768 88.0804C38.8943 87.8912 42.0835 87.4057 44.9601 86.6627L44.2099 83.758C41.5463 84.446 38.5562 84.905 35.2156 85.0848L35.3768 88.0804ZM54.0175 82.9273C57.0673 81.0697 59.5032 78.7962 61.3702 76.239L58.9472 74.47C57.3182 76.7013 55.1779 78.7079 52.4569 80.3652L54.0175 82.9273ZM65.473 67.1761C66.2159 63.9556 66.3558 60.6079 65.9819 57.3088L63.001 57.6466C63.3402 60.64 63.2092 63.6433 62.5498 66.5018L65.473 67.1761ZM63.4472 47.8151C62.1427 44.7745 60.4025 41.9259 58.2968 39.4397L56.0075 41.3786C57.9119 43.627 59.4977 46.2183 60.6903 48.998L63.4472 47.8151ZM50.6949 33.0931C49.2357 32.2776 47.6945 31.6095 46.082 31.1155L45.2033 33.984C46.6028 34.4126 47.9486 34.995 49.2313 35.7119L50.6949 33.0931ZM46.082 31.1155C44.4206 30.6066 42.7981 30.2887 41.2236 30.1501L40.9605 33.1385C42.3144 33.2577 43.7308 33.5329 45.2033 33.984L46.082 31.1155ZM31.4506 31.8064C28.4233 33.2239 25.8638 35.436 23.8728 38.1883L26.3035 39.9466C28.0255 37.5661 30.2004 35.7044 32.7228 34.5233L31.4506 31.8064ZM19.8556 47.0926C19.124 50.1151 18.8573 53.3793 19.1139 56.7512L22.1052 56.5236C21.8716 53.453 22.1164 50.5043 22.7714 47.7984L19.8556 47.0926ZM21.1704 66.1599C22.219 69.0368 23.6665 71.9057 25.5468 74.6914L28.0334 73.0131C26.2884 70.4278 24.953 67.7772 23.9891 65.1325L21.1704 66.1599ZM31.7298 81.9846C33.9091 84.0699 36.3906 86.0545 39.1915 87.8998L40.842 85.3946C38.1868 83.6453 35.8479 81.7729 33.8038 79.817L31.7298 81.9846ZM47.4713 92.4829C50.1757 93.7341 53.0933 94.8745 56.2331 95.8849L57.1521 93.0291C54.123 92.0543 51.3196 90.9578 48.731 89.7602L47.4713 92.4829ZM65.3157 98.2957C66.8227 98.6181 68.3712 98.9139 69.9621 99.1818L70.4602 96.2234C68.9117 95.9627 67.4063 95.6751 65.9433 95.3621L65.3157 98.2957ZM69.9621 99.1818C71.7351 99.4803 73.5042 99.6968 75.2681 99.8347L75.502 96.8439C73.8259 96.7128 72.145 96.5071 70.4602 96.2234L69.9621 99.1818ZM85.9413 99.736C89.473 99.4003 92.9715 98.7725 96.4283 97.8856L95.6827 94.9797C92.3679 95.8302 89.0239 96.4295 85.6574 96.7495L85.9413 99.736ZM106.507 94.5446C109.744 93.2324 112.935 91.7103 116.075 90.0073L114.645 87.3702C111.595 89.0244 108.505 90.4976 105.38 91.7644L106.507 94.5446ZM125.11 84.5334C128.003 82.5975 130.846 80.5212 133.631 78.3287L131.776 75.9714C129.046 78.1199 126.266 80.1503 123.441 82.04L125.11 84.5334ZM141.675 71.549C144.273 69.2148 146.812 66.7921 149.288 64.303L147.161 62.1874C144.722 64.6396 142.223 67.0234 139.67 69.3176L141.675 71.549ZM156.504 56.6742C158.859 54.0628 161.144 51.4057 163.355 48.7251L161.041 46.816C158.856 49.4648 156.599 52.0885 154.276 54.6655L156.504 56.6742ZM169.863 40.5016C172.011 37.6729 174.074 34.8424 176.043 32.0352L173.587 30.3121C171.639 33.0897 169.599 35.8896 167.474 38.687L169.863 40.5016ZM181.905 23.3435C183.876 20.3012 185.725 17.3194 187.444 14.4327L184.866 12.8983C183.167 15.7525 181.338 18.702 179.388 21.7123L181.905 23.3435Z" fill="#facc13"/>
</svg>
