<svg width="32" height="34" viewBox="0 0 32 34" fill="none" xmlns="http://www.w3.org/2000/svg">
<g clip-path="url(#clip0_19_1224)">
<path d="M23.715 12.2426C26.0498 13.8071 28.91 14.7277 31.9992 14.7277V9.15523C31.4145 9.15535 30.8314 9.09814 30.2594 8.98453V13.3709C27.1705 13.3709 24.3107 12.4504 21.9754 10.886V22.2579C21.9754 27.9468 17.0559 32.5581 10.9879 32.5581C8.72378 32.5581 6.61928 31.9165 4.87115 30.8159C6.8664 32.7285 9.6489 33.9149 12.7272 33.9149C18.7957 33.9149 23.7153 29.3035 23.7153 23.6144V12.2426H23.715ZM25.8613 6.62059C24.668 5.39859 23.8845 3.81934 23.715 2.07339V1.35669H22.0664C22.4814 3.57572 23.897 5.47151 25.8613 6.62059ZM8.70915 26.4506C8.04252 25.6312 7.68216 24.6287 7.68378 23.5981C7.68378 20.9963 9.9339 18.8866 12.71 18.8866C13.2273 18.8864 13.7415 18.9608 14.2347 19.1074V13.4103C13.6584 13.3363 13.0769 13.3048 12.4957 13.3164V17.7507C12.0023 17.604 11.4878 17.5296 10.9703 17.53C8.19428 17.53 5.94428 19.6394 5.94428 22.2416C5.94428 24.0816 7.0689 25.6745 8.70915 26.4506Z" fill="#FF004F"/>
<path d="M21.9754 10.8858C24.3107 12.4503 27.1704 13.3708 30.2594 13.3708V8.98441C28.5351 8.64008 27.0088 7.79547 25.8611 6.62059C23.8968 5.47139 22.4814 3.5756 22.0664 1.35669H17.736V23.6141C17.7261 26.2089 15.4799 28.3099 12.7097 28.3099C11.0775 28.3099 9.62725 27.5805 8.70887 26.4504C7.06887 25.6745 5.94412 24.0815 5.94412 22.2417C5.94412 19.6398 8.19412 17.5301 10.9701 17.5301C11.502 17.5301 12.0146 17.6078 12.4955 17.7508V13.3165C6.534 13.432 1.73962 17.9983 1.73962 23.6143C1.73962 26.4177 2.9335 28.9592 4.87125 30.8162C6.61937 31.9165 8.72375 32.5584 10.988 32.5584C17.0561 32.5584 21.9755 27.9467 21.9755 22.2579V10.886L21.9754 10.8858Z" fill="black"/>
<path d="M30.2594 8.98421V7.79843C28.7045 7.80064 27.1803 7.39244 25.8611 6.6205C27.0289 7.81896 28.5665 8.64541 30.2594 8.98444V8.98421ZM22.0662 1.35648C22.0267 1.14446 21.9963 0.931026 21.9753 0.716697V0H15.996V22.2577C15.9865 24.8522 13.7403 26.9532 10.97 26.9532C10.1847 26.9543 9.41005 26.7821 8.70875 26.4506C9.62712 27.5804 11.0774 28.3097 12.7096 28.3097C15.4796 28.3097 17.7261 26.209 17.7359 23.6142V1.3566H22.0662V1.35648ZM12.4958 13.3163V12.0537C11.9961 11.9896 11.4924 11.9576 10.9881 11.9578C4.91937 11.9578 0 16.5694 0 22.2577C0 25.8241 1.93338 28.9671 4.87138 30.8158C2.93363 28.959 1.73975 26.4174 1.73975 23.6141C1.73975 17.9982 6.534 13.4318 12.4958 13.3163Z" fill="#00F2EA"/>
</g>
<defs>
<clipPath id="clip0_19_1224">
<rect width="32" height="34" fill="white"/>
</clipPath>
</defs>
</svg>
