<svg width="46" height="34" viewBox="0 0 46 34" fill="none" xmlns="http://www.w3.org/2000/svg">
<g clip-path="url(#clip0_19_1221)">
<path d="M44.9811 5.30306C44.7173 4.27806 44.2027 3.34361 43.4886 2.59274C42.7744 1.84188 41.8856 1.3008 40.9107 1.0234C37.3414 0 22.9765 0 22.9765 0C22.9765 0 8.61083 0.0309777 5.04161 1.05438C4.06665 1.3318 3.17784 1.8729 2.46367 2.6238C1.7495 3.3747 1.2349 4.30919 0.971115 5.33422C-0.108493 12.0016 -0.527292 22.1612 1.00076 28.5619C1.26457 29.5869 1.77919 30.5213 2.49335 31.2722C3.20752 32.0231 4.09632 32.5641 5.07125 32.8415C8.64048 33.8649 23.0058 33.8649 23.0058 33.8649C23.0058 33.8649 37.3709 33.8649 40.9399 32.8415C41.9149 32.5642 42.8037 32.0231 43.5179 31.2722C44.2321 30.5214 44.7468 29.5869 45.0106 28.5619C46.1493 21.885 46.5002 11.7317 44.9811 5.30306Z" fill="#FF0000"/>
<path d="M18.4044 24.189L30.3212 16.9323L18.4044 9.67554V24.189Z" fill="white"/>
</g>
<defs>
<clipPath id="clip0_19_1221">
<rect width="46" height="34" fill="white"/>
</clipPath>
</defs>
</svg>
