<svg width="80" height="80" viewBox="0 0 145 146" fill="none" xmlns="http://www.w3.org/2000/svg">
<path d="M72.5 41.2812V50.3437C64.3135 50.3437 56.2056 50.682 48.1883 51.3466C41.3552 51.9145 36.25 57.7326 36.25 64.5899V79.7726M72.5 50.3497C80.6865 50.3497 88.7944 50.682 96.8117 51.3466C103.645 51.9145 108.75 57.7326 108.75 64.5899V79.7726M90.625 50.3497V41.2872M54.375 50.3497V41.2872M126.875 100.193L117.812 104.725C114.999 106.132 111.896 106.864 108.75 106.864C105.604 106.864 102.501 106.132 99.6875 104.725C96.8737 103.318 93.7709 102.585 90.625 102.585C87.479 102.585 84.3763 103.318 81.5625 104.725C78.7487 106.132 75.646 106.864 72.5 106.864C69.354 106.864 66.2513 106.132 63.4375 104.725C60.6237 103.318 57.521 102.585 54.375 102.585C51.229 102.585 48.1263 103.318 45.3125 104.725C42.4987 106.132 39.396 106.864 36.25 106.864C33.104 106.864 30.0013 106.132 27.1875 104.725L18.125 100.187M108.75 79.7666C96.7245 78.2722 84.6179 77.5256 72.5 77.5312C60.2233 77.5312 48.1279 78.2864 36.25 79.7666C33.904 80.062 31.5616 80.3863 29.2235 80.7393C22.765 81.706 18.125 87.3489 18.125 93.8739V125.109C18.1266 126.911 18.8434 128.638 20.1179 129.912C21.3924 131.185 23.1203 131.9 24.9219 131.9H120.078C123.83 131.9 126.875 128.855 126.875 125.109V93.8739C126.875 87.3428 122.241 81.6999 115.776 80.7333C113.444 80.3828 111.106 80.0626 108.75 79.7666ZM74.101 19.2895C74.4182 19.6063 74.6342 20.01 74.7219 20.4495C74.8095 20.8891 74.7648 21.3448 74.5934 21.7589C74.422 22.1731 74.1316 22.5271 73.759 22.7762C73.3864 23.0252 72.9482 23.1582 72.5 23.1582C72.0518 23.1582 71.6136 23.0252 71.241 22.7762C70.8684 22.5271 70.578 22.1731 70.4066 21.7589C70.2352 21.3448 70.1905 20.8891 70.2781 20.4495C70.3658 20.01 70.5818 19.6063 70.899 19.2895L72.5 17.6885L74.101 19.2895ZM55.976 19.2895C56.2932 19.6063 56.5092 20.01 56.5969 20.4495C56.6845 20.8891 56.6398 21.3448 56.4684 21.7589C56.297 22.1731 56.0066 22.5271 55.634 22.7762C55.2614 23.0252 54.8232 23.1582 54.375 23.1582C53.9268 23.1582 53.4886 23.0252 53.116 22.7762C52.7434 22.5271 52.453 22.1731 52.2816 21.7589C52.1102 21.3448 52.0655 20.8891 52.1531 20.4495C52.2408 20.01 52.4568 19.6063 52.774 19.2895L54.375 17.6885L55.976 19.2895ZM92.226 19.2895C92.5432 19.6063 92.7592 20.01 92.8469 20.4495C92.9345 20.8891 92.8898 21.3448 92.7184 21.7589C92.547 22.1731 92.2566 22.5271 91.884 22.7762C91.5114 23.0252 91.0732 23.1582 90.625 23.1582C90.1768 23.1582 89.7386 23.0252 89.366 22.7762C88.9933 22.5271 88.703 22.1731 88.5316 21.7589C88.3602 21.3448 88.3155 20.8891 88.4031 20.4495C88.4908 20.01 88.7068 19.6063 89.024 19.2895L90.625 17.6885L92.226 19.2895Z" stroke="#9CA3AF" stroke-width="7" stroke-linecap="round" stroke-linejoin="round"/>
</svg>
