<svg width="90" height="90" viewBox="0 0 175 176" fill="none" xmlns="http://www.w3.org/2000/svg">
<path d="M129.5 133.5H45.5C39.55 133.5 35 128.95 35 123V46C35 40.05 38.85 35.5 43.75 35.5H49V42.5H43.75C43.05 42.5 42 43.9 42 46V123C42 125.1 43.4 126.5 45.5 126.5H129.5C131.6 126.5 133 125.1 133 123V46C133 43.9 131.95 42.5 131.25 42.5H126V35.5H131.25C136.15 35.5 140 40.05 140 46V123C140 128.95 135.45 133.5 129.5 133.5Z" fill="#9CA3AF"/>
<path d="M59.5 49.5C57.4 49.5 56 48.1 56 46V32C56 29.9 57.4 28.5 59.5 28.5C61.6 28.5 63 29.9 63 32V46C63 48.1 61.6 49.5 59.5 49.5ZM115.5 49.5C113.4 49.5 112 48.1 112 46V32C112 29.9 113.4 28.5 115.5 28.5C117.6 28.5 119 29.9 119 32V46C119 48.1 117.6 49.5 115.5 49.5ZM70 35.5H105V42.5H70V35.5ZM42 56.5H133V63.5H42V56.5ZM119 70.5H126V77.5H119V70.5ZM105 70.5H112V77.5H105V70.5ZM91 70.5H98V77.5H91V70.5ZM77 70.5H84V77.5H77V70.5ZM63 70.5H70V77.5H63V70.5ZM119 84.5H126V91.5H119V84.5ZM105 84.5H112V91.5H105V84.5ZM91 84.5H98V91.5H91V84.5ZM77 84.5H84V91.5H77V84.5ZM63 84.5H70V91.5H63V84.5ZM49 84.5H56V91.5H49V84.5ZM119 98.5H126V105.5H119V98.5ZM105 98.5H112V105.5H105V98.5ZM91 98.5H98V105.5H91V98.5ZM77 98.5H84V105.5H77V98.5ZM63 98.5H70V105.5H63V98.5ZM49 98.5H56V105.5H49V98.5ZM105 112.5H112V119.5H105V112.5ZM91 112.5H98V119.5H91V112.5ZM77 112.5H84V119.5H77V112.5ZM63 112.5H70V119.5H63V112.5ZM49 112.5H56V119.5H49V112.5Z" fill="#9CA3AF"/>
</svg>
