<svg width="80" height="80" viewBox="0 0 133 134" fill="none" xmlns="http://www.w3.org/2000/svg">
<path d="M69.426 20.583L81.529 8.47998L123.823 50.7075L111.653 62.8105C108.169 60.5595 104.018 59.5695 99.8927 60.005C95.7671 60.4406 91.9149 62.2755 88.977 65.2045L83.9895 70.192C77.8715 76.3765 77.0735 85.8195 81.662 92.8685L69.4925 104.971L53.466 88.945L34.846 107.498C32.053 110.291 12.369 125.52 9.57599 122.727C6.783 119.934 21.945 100.183 24.738 97.3905L43.2915 78.837L27.265 62.744L39.4345 50.641C46.417 55.2295 55.9265 54.4315 62.0445 48.247L67.032 43.2595C73.2165 37.1415 74.0145 27.632 69.426 20.583Z" fill="#9CA3AF"/>
</svg>
